<?xml version="1.0" encoding="UTF-8"?> <svg xmlns="http://www.w3.org/2000/svg" viewBox="0 0 625.87 226.03"><defs><style>.cls-1{fill:#fff;}</style></defs><g id="Capa_2" data-name="Capa 2"><g id="Capa_1-2" data-name="Capa 1"><path class="cls-1" d="M623.56,84.61C614.66,49.42,593,25,556.36,17.11c-25.1-5.43-45.36,4.42-62.48,23.17-9-20.11-24.87-31.22-46.56-35-23.12-4.06-39.14,5.78-51,25.83-.74-2.93-1.07-4.52-1.55-6-2.33-7.52-5.58-14.63-11.64-19.84C374.57-2.19,362-1.8,351.55,7c-5.52,4.64-10,7.59-16.08,1.69a3.73,3.73,0,0,0-1.8-.68C322.3,5.69,311,2.72,299.51,1.32a90.18,90.18,0,0,0-25.63.35C260.22,4,248.43,11.43,236.32,18.31,216.87,4.82,194.57,5.36,172.46,7.16,149.75,9,129.13,16.9,113.38,33.39c-4.95-3.53-9-7.22-13.65-9.56C86.85,17.4,73.61,18,61,24.37A147,147,0,0,0,39.32,38.06C28,46.63,18.5,57,12.83,70.32,6,86.37,1.23,103,.29,120.43-1.09,146,2.22,170.63,14.8,193.65c11.63,21.3,28.62,30.65,53,28.6,16.11-1.36,30.62-6.53,44.43-14.18,4.7-2.6,7.64-1.95,12,.83,10.54,6.71,21.92,8.71,33.44,1.95,13.21-7.77,18.42-20.71,22-34.63.28-1.1.64-2.18,1.28-4.35.95,2.35,1.49,3.51,1.89,4.71a97.54,97.54,0,0,0,23.64,39.09c10.44,10.49,22.32,12.63,35.13,8.14,8.5-3,12.68-10,14-18.83,22.54,8.5,42.72-1.18,63.11-7.36,7.3,10.43,8.92,11.62,19.19,13.28a35.92,35.92,0,0,0,7.76.24c12.21-.68,24.54.26,36.48-3.91,15.43-5.39,24.58-16,28-31.72.64-3,.51-6.09.81-10.17,8.66,10.62,19,16.15,30.92,19.14,13.62,3.42,22.95-4.6,32.07-12.79,4.94,13.84,13.35,23.41,27.84,25.47,15.57,2.21,23.43-9.19,31.76-19.82,5.1,9.78,12.78,15.65,23.6,16.87,3.52.4,7.11.19,10.65.51,14,1.29,24.74-4.2,33.11-15.27,9.19-12.14,16.11-25.22,19.86-40.13C625.31,121.18,628.1,102.55,623.56,84.61ZM125.06,188.48c-.43.45-1.28,1.07-1.64.91-5.81-2.5-7,1.88-8.86,5.64a6.86,6.86,0,0,1-2.63,2.66c-17.42,10.43-36.1,16.78-56.6,15.4a34.3,34.3,0,0,1-26.58-15c-14-19.91-19.15-42.33-19.3-66.34a139.35,139.35,0,0,1,13.8-61.39c5.08-10.7,13.34-19.22,23-25.89C54,39.08,62.24,33.83,71,30.68c12.48-4.47,25.09-2.19,33.33,8.75,3.78,5,8.41,10.56,9.8,17.11,1.59,7.52,2.1,15.26,3.11,23.16-18.67,3.61-30.83,16-44.44,27.94,0-4.67.34-8.49-.15-12.19-.24-1.78-2.07-3.36-3.17-5-1.49,1.43-4,2.71-4.26,4.32-.64,4.59-.25,9.31-.43,14-.11,3-.5,6-.77,9-.06.64-.4,1.38-.18,1.89,2.56,5.84,4.85,11.85,8,17.37,1.25,2.2,4.45,3.28,6.76,4.88l.88-1.23c-1.28-4.85-2.5-9.72-3.88-14.55-1.31-4.62-.65-8.16,3.58-11.35,8.74-6.62,16.67-14.37,25.71-20.51,7.92-5.37,17.53-6.72,27.06-5.94,12.45,1,17.48,10.41,20.41,20.64,5.74,20,5.43,40-6.82,57.75C140,174.78,132,181.27,125.06,188.48ZM238.3,215.29c-6.75,3-17.19,1.06-22.7-4-13.2-12.05-20.92-27.3-26.19-44.05-1.36-4.32-2.94-8.57-4.5-12.82-1.09-3-2.87-5.24-6.43-4.72-3.25.48-4.15,2.76-4.62,5.86-2,12.94-4.06,25.84-10.81,37.48-7.9,13.62-23.85,16.44-33.93,7.71,6.22-7.21,12.52-14.59,18.91-21.88,13.09-14.95,18-32.57,17-52.09-.62-11.59-2.88-22.8-9-32.88S140.8,78.85,129,78.83h-2.61c-.66-6.31-.94-12.43-2-18.4a76.53,76.53,0,0,0-4.49-15.76c-1.38-3.26-.71-4.78,1.7-6.84C140.51,21.65,162.81,15.39,187.22,16c9.16.21,18.5.71,27.41,2.67,30.08,6.61,39.79,40.12,29,61.12-1.25,2.45-2.43,4.94-3.82,7.31-9,15.36-22.58,21.3-40.09,19.25-1.81-.21-5.27,1.13-5.45,2.19A8.93,8.93,0,0,0,196,115.3c6.62,7.09,13.66,13.8,20.58,20.63,17.46,17.24,26.06,38.67,29.14,62.55C246.92,207.53,244.25,212.62,238.3,215.29ZM316.74,188a345.38,345.38,0,0,1-39.22,10.65c-6.23,1.24-13.11-.56-19.65-1.31a4.54,4.54,0,0,1-3-3A144.13,144.13,0,0,0,243.51,158a108.91,108.91,0,0,0-28.34-36.46c-1.71-1.44-3.47-2.81-5.2-4.22,37.79-3.91,64.16-55.92,34.65-92.28C259.23,15,274.91,8.27,293,10.37c11.84,1.37,23.62,3.43,35.31,5.77C335,17.47,341,21.75,343.58,27.53c2.13,4.7,2,11.36.51,16.51-1.86,6.66-5.46,13.05-9.31,18.9-4.41,6.69-12.77,7-18.49,1.62-8.65-8.1-27.07-11.47-37.47,1.18A97.46,97.46,0,0,0,271,76.83c-1.83,3-3.08,6.72,1.11,8.77s6-1.52,7.95-4.34c2.83-4.05,5.43-8.33,8.77-11.92,3.49-3.77,16.49-3.14,19.41.8A13.5,13.5,0,0,1,311,77.59a103.38,103.38,0,0,1-1.63,15.86c-.75,4.54-3.75,6.38-8.45,7C289,102,280,109.2,271.31,116.91a8.14,8.14,0,0,0-1.19,1.53c-1.71,2.46-2.91,5.58.12,7.13,1.73.89,5.16-.19,7.15-1.45,5.8-3.7,10.74-9.36,17-11.67,17.53-6.49,35.16-5.14,51.27,4.61,10.16,6.14,12.3,14.84,8.75,28.73C349.14,166.31,337.29,181.32,316.74,188ZM466.3,165.57a45.93,45.93,0,0,1-7.71,6.62A17,17,0,0,1,443,175.25c-11.63-3.32-21.12-9.61-27.65-20a3.09,3.09,0,0,1-.42-1.41c5.42-2.33,11-3.8,15.45-6.85,7.43-5.06,10.54-13.33,12.7-21.69,2.78-10.82,3-21.77-.29-32.59-.56-1.83-1.14-4.17-2.51-5.1-2.34-1.58-5.4-3.17-8-2.93-1.79.16-3.31,3.38-4.26,4.45,2.58,2.68,5.09,4.11,5.63,6.07,3.66,13.31,2.85,26.49-4.11,38.52-6.6,11.42-25.31,13.36-35.19,4-8-7.55-11.16-17.59-13.23-28-.51-2.53-.66-5.19-1.54-7.59-.51-1.39-2.15-2.36-3.28-3.52-1.06,1.24-2.8,2.35-3.06,3.74a41.68,41.68,0,0,0,2.62,23.75c4.61,11.17,11.06,20.89,23.22,25.3a3.35,3.35,0,0,1,1.65,2.47,165.91,165.91,0,0,1,.42,17c-.84,15.66-13.9,27.66-29.38,29.31-10.11,1.08-20.32,1.41-30.49,1.58-5.64.09-10.87-1.66-13.9-6.55,6.26-4.84,13.24-8.87,18.45-14.53,13.43-14.57,21.32-31.68,18.7-52.07-1.28-9.94-8.12-16.47-16.38-21.13-9.29-5.24-19.61-7.38-30.24-8,.95-7.06,1.89-14,2.89-21.43,0,0,.13-.17.25-.16,16.11,1.24,23.6-9.41,29-21.88s7.81-25.46-.84-38.15c6.55-6.14,14.34-9.24,23.05-7.73,7.74,1.35,10.62,8.45,12.26,15a272.77,272.77,0,0,1,5.32,30c2,14.88,3.61,29.83,5.31,44.76.31,2.71.25,5.46.35,8.19a46.55,46.55,0,0,0,.28,6.27c.49,2.78,2.06,5.37,5.17,4.29a6.87,6.87,0,0,0,3.83-4.92,96.05,96.05,0,0,0-.61-16C403,87,401.38,76.48,400.14,65.88c-.65-5.62-.95-11.29-1.15-16.94a11.28,11.28,0,0,1,1.07-5.66c5.1-9.19,10.32-18.35,19.31-24.47,8.84-6,18.57-5.82,28.51-3.9,16,3.1,28.43,11.16,35.85,26.12,10.94,22.07,16.61,45,10.16,69.47C488.56,130.71,479.91,149.44,466.3,165.57Zm149.14-51.5c-1.49,21.61-8,41.28-21.23,58.89-8.58,11.42-19.46,13.43-32.46,12.51-10-.7-16.67-5.23-21.22-13.78a7.62,7.62,0,0,1-.28-7.64c7-14.73,12.28-29.94,12-46.54,0-1.72-.19-3.78-1.14-5a5.87,5.87,0,0,0-4.41-2c-1.15.08-2.57,1.71-3.14,3a12.4,12.4,0,0,0-.86,5.22c.36,17.48-6.38,32.9-14.32,47.8a74.61,74.61,0,0,1-11.74,15.84c-10.34,11-23.2,4.76-29.27-4.27-8.47-12.62-8.28-12.86.06-27a138.41,138.41,0,0,0,17.47-47.54c2.79-16.66.25-32.86-5.18-48.69-.94-2.74-2-5.45-2.76-7.69,3.17-2.2,5.86-4.11,8.61-5.93,5.78-3.85,11.26-8.35,17.46-11.34,16.93-8.16,34-5.78,49.89,2.58,18.92,9.92,31.87,25.69,39.46,45.65C616.82,89.71,616.28,101.94,615.44,114.07Z"></path><path class="cls-1" d="M557.11,55.82c-3.45,2.26-6.41,5.25-9.57,8-.43.58-.86,1.17-1.28,1.76-2.21-3-4.22-6.07-6.67-8.8-1.92-2.14-4.62-3.63-7.24-1.19s-1.79,5.24.45,7.69l7.74,8.46c-3.09,4.85-6.19,9.19-8.64,13.87-.83,1.6,0,4,0,6.11,1.8-.62,3.93-.83,5.34-1.94,3.93-3.08,7.55-6.54,11.79-10.28,1.46,1.31,3.24,3.64,5.6,4.79,1.85.91,4.42.36,6.67.45-.15-2.2.37-4.78-.6-6.52-1.45-2.56-4-4.54-6.05-6.8,2.69-3.55,5.47-6.72,7.62-10.27.91-1.5.51-3.78.71-5.71C561,55.49,558.55,54.87,557.11,55.82Z"></path><path class="cls-1" d="M195.82,47.64c-1.79.07-4-.53-5.3.32-4.28,2.81-8.22,6.14-12.46,9.41-1.77-1.08-3.69-2.71-5.91-3.43-1.56-.5-3.51.24-5.29.42a33.83,33.83,0,0,0,1.93,4.44,14,14,0,0,0,2.66,2.79c2.25,2,2.37,4,.73,6.74a39.32,39.32,0,0,0-4,9.78c-.36,1.32.89,3.08,1.41,4.64,1.43-.49,3.27-.57,4.22-1.54,2.47-2.48,4.55-5.36,6.76-8,2.78,1.56,5.28,3.51,8.1,4.31,1.51.43,4-.72,5.19-2,.57-.62-.54-3.51-1.62-4.72-1.91-2.12-4.38-3.74-7.33-6.16,3.36-4.28,6.46-8,9.23-11.91C195.1,51.3,195.28,49.34,195.82,47.64Z"></path></g></g></svg> 